<?xml version="1.0" encoding="utf-8"?>
<!-- Generator: Adobe Illustrator 27.0.1, SVG Export Plug-In . SVG Version: 6.00 Build 0)  -->
<svg version="1.1" id="Layer_1" xmlns="http://www.w3.org/2000/svg" xmlns:xlink="http://www.w3.org/1999/xlink" x="0px" y="0px"
	 viewBox="0 0 15 15" style="enable-background:new 0 0 15 15;" xml:space="preserve">
<style type="text/css">
	.st0{fill:#EF4DA0;}
</style>
<path class="st0" d="M5.8,6.1c0,0.2-0.1,0.3-0.1,0.4L5.6,6.6L2.2,9.9C2.1,10,2,10.1,1.8,10.1c-0.2,0-0.4-0.1-0.5-0.3l0,0
	c0,0,0-0.1,0-0.1l0,0c-0.6-1.1-1-2.3-1-3.7s0.4-2.6,1-3.7C1.3,2.2,1.5,2,1.8,2c0.2,0,0.3,0.1,0.4,0.2c0,0,0,0,0,0l3.4,3.4l0,0
	C5.7,5.8,5.8,5.9,5.8,6.1L5.8,6.1z"/>
<path class="st0" d="M14.8,6c0,4-3.3,7.3-7.3,7.3c-1.3,0-2.6-0.4-3.6-1c0,0,0,0,0,0c0,0,0,0,0,0c-0.2-0.1-0.3-0.3-0.3-0.6
	c0-0.2,0.1-0.3,0.2-0.4l0.1-0.1l9-9c0,0,0,0,0,0l0,0c0,0,0,0,0,0C12.9,2.1,13.1,2,13.2,2c0.2,0,0.4,0.1,0.6,0.3l0,0
	C14.4,3.4,14.8,4.7,14.8,6L14.8,6z"/>
<path class="st0" d="M9.4,2.5c0,0.1,0,0.3-0.1,0.4L9.1,3l0,0L8,4.2C7.8,4.3,7.7,4.4,7.5,4.4c-0.2,0-0.3-0.1-0.4-0.2c0,0,0,0,0,0
	L5.9,3L5.8,2.9C5.7,2.8,5.6,2.7,5.6,2.5c0-0.3,0.2-0.5,0.4-0.6c0,0,0.1,0,0.1,0C6.6,1.8,7,1.7,7.5,1.7c0.5,0,0.9,0.1,1.4,0.2
	c0,0,0,0,0,0C9.2,2,9.3,2.2,9.4,2.5L9.4,2.5z"/>
</svg>
