<?xml version="1.0" encoding="UTF-8"?><svg id="Layer_1" xmlns="http://www.w3.org/2000/svg" viewBox="0 0 28.35 28.35"><defs><style>.cls-1{fill:#fff;}</style></defs><path class="cls-1" d="M10.95,11.45c0,.29-.1,.56-.27,.77l-.19,.19-6.27,6.27c-.22,.22-.53,.36-.87,.36-.42,0-.79-.21-1.01-.53,0,0,0,0,0,0-.03-.05-.06-.1-.09-.14,0,0,0,0,0,0-1.2-2.05-1.89-4.43-1.89-6.97s.69-4.93,1.89-6.98c.21-.35,.6-.59,1.05-.59,.32,0,.61,.12,.82,.32,.03,.03,.06,.05,.08,.08l6.45,6.45s0,0,0,0c.17,.21,.28,.48,.28,.78Z"/><path class="cls-1" d="M27.98,11.38c0,7.62-6.18,13.81-13.81,13.81-2.51,0-4.87-.67-6.9-1.85,0,0-.02,0-.02-.01-.02-.01-.04-.02-.05-.03-.35-.21-.59-.6-.59-1.05,0-.31,.12-.6,.31-.81l.11-.11L24.13,4.21s.01-.01,.02-.02l.04-.04s.01-.01,.02-.02c.22-.2,.51-.32,.82-.32,.44,0,.83,.24,1.05,.59,0,0,0,0,0,0,1.2,2.05,1.89,4.43,1.89,6.97Z"/><path class="cls-1" d="M17.69,4.72c0,.27-.09,.52-.23,.72l-.27,.27-.02,.02-2.12,2.12c-.22,.22-.53,.36-.87,.36s-.63-.13-.85-.34c-.01-.01-.03-.03-.04-.04l-2.19-2.19-.13-.13c-.19-.22-.3-.5-.3-.8,0-.52,.32-.96,.77-1.14,.07-.02,.14-.04,.21-.06,.8-.23,1.64-.35,2.52-.35s1.76,.13,2.58,.37c.03,0,.06,.02,.09,.03,.49,.16,.84,.62,.84,1.16Z"/></svg>